# xmcd
#
# Track frame offsets:
# 150
# 20080
# 41272
# 56703
# 66263
# 86826
# 98630
# 116333
# 160340
# 168346
# 188063
# 209919
# 227716
# 248629
# 264859
# 278310
# 299064
# 326157
#
# Disc length: 4544 seconds
#
# Revision: 1
# Processed by: cddbd v1.5.1PL0 Copyright (c) Steve Scherf et al.
# Submitted via: CedeCatalogueitor 2.6.0.6 http://personales.ya.com/cdcatalogueitor
#
DISCID=0311be12
DTITLE=Emociones Clandestinas - Pie Plano - Grandes Exitos
DYEAR=2002
DGENRE=
TTITLE0=Un Nuevo Baile - Emociones Clandestinas
TTITLE1=Radio Calndestina - Emociones Clandestinas
TTITLE2=Cajitas Rectangulares - Emociones Clandestinas
TTITLE3=Mal Olor - Emociones Clandestinas
TTITLE4=Tiempos Modernos - Emociones Clandestinas
TTITLE5=Te Tengo Atrapada - Emociones Clandestinas
TTITLE6=No Me Puedo Acostumbrar - Emociones Clandestinas
TTITLE7=Es Esto Revolucion - Emociones Clandestinas
TTITLE8=Animate - Emociones Clandestinas
TTITLE9=Cantante Pop - Pie Plano
TTITLE10=Espectador - Pie Plano
TTITLE11=Fantasias  Cinematograficas - Pie Plano
TTITLE12=Vendedores De La Nada - Pie Plano
TTITLE13=S. E ( Super Enigmatico ) - Pie Plano
TTITLE14=Para Qué - Pie Plano
TTITLE15=Záfate - Pie Plano
TTITLE16=Final - Pie Plano
TTITLE17=Más `perdido Que.... - Pie Plano
EXTD=
EXTT0=
EXTT1=
EXTT2=
EXTT3=
EXTT4=
EXTT5=
EXTT6=
EXTT7=
EXTT8=
EXTT9=
EXTT10=
EXTT11=
EXTT12=
EXTT13=
EXTT14=
EXTT15=
EXTT16=
EXTT17=
PLAYORDER=
